<svg width="16" height="20" viewBox="0 0 16 20" fill="none" xmlns="http://www.w3.org/2000/svg">
<path fill-rule="evenodd" clip-rule="evenodd" d="M15.8399 16.1934C15.8399 19.4894 11.3199 19.8704 7.9209 19.8704L7.67766 19.8702C5.5121 19.8649 -9.98974e-05 19.7282 -9.98974e-05 16.1734C-9.98974e-05 12.9447 4.33825 12.5132 7.71138 12.4969L8.16413 12.4966C10.3295 12.5019 15.8399 12.6386 15.8399 16.1934ZM7.9209 13.9964C3.6599 13.9964 1.4999 14.7284 1.4999 16.1734C1.4999 17.6314 3.6599 18.3704 7.9209 18.3704C12.1809 18.3704 14.3399 17.6384 14.3399 16.1934C14.3399 14.7354 12.1809 13.9964 7.9209 13.9964ZM7.9209 0C10.8489 0 13.2299 2.382 13.2299 5.31C13.2299 8.238 10.8489 10.619 7.9209 10.619H7.8889C4.9669 10.61 2.5999 8.227 2.60987 5.307C2.60987 2.382 4.9919 0 7.9209 0ZM7.9209 1.428C5.7799 1.428 4.03788 3.169 4.03788 5.31C4.0309 7.444 5.7599 9.184 7.8919 9.192L7.9209 9.906V9.192C10.0609 9.192 11.8019 7.45 11.8019 5.31C11.8019 3.169 10.0609 1.428 7.9209 1.428Z" fill="#07111B"/>
</svg>
