<svg width="221" height="30" viewBox="0 0 221 30" fill="none" xmlns="http://www.w3.org/2000/svg">
<path d="M0.304 23V0.504H4.656V23H0.304ZM14.416 23V0.504H18.768V23H14.416ZM3.056 13.304V9.464H15.632V13.304H3.056ZM22.9185 23V7.544H27.1425V23H22.9185ZM25.0305 5.048C24.3478 5.048 23.7825 4.824 23.3345 4.376C22.8865 3.90667 22.6625 3.33067 22.6625 2.648C22.6625 1.98667 22.8865 1.42133 23.3345 0.952C23.7825 0.482666 24.3478 0.247999 25.0305 0.247999C25.7345 0.247999 26.2998 0.482666 26.7265 0.952C27.1745 1.42133 27.3985 1.98667 27.3985 2.648C27.3985 3.33067 27.1745 3.90667 26.7265 4.376C26.2998 4.824 25.7345 5.048 25.0305 5.048ZM30.856 23V7.544H35.048V23H30.856ZM35.048 14.456L33.416 13.368C33.608 11.4693 34.1627 9.976 35.08 8.888C35.9973 7.77867 37.32 7.224 39.048 7.224C39.7947 7.224 40.4667 7.352 41.064 7.608C41.6613 7.84267 42.2053 8.23733 42.696 8.792L40.072 11.8C39.8373 11.544 39.5493 11.352 39.208 11.224C38.888 11.096 38.5147 11.032 38.088 11.032C37.192 11.032 36.456 11.32 35.88 11.896C35.3253 12.4507 35.048 13.304 35.048 14.456ZM44.1685 23V7.544H48.3925V23H44.1685ZM46.2805 5.048C45.5978 5.048 45.0325 4.824 44.5845 4.376C44.1365 3.90667 43.9125 3.33067 43.9125 2.648C43.9125 1.98667 44.1365 1.42133 44.5845 0.952C45.0325 0.482666 45.5978 0.247999 46.2805 0.247999C46.9845 0.247999 47.5498 0.482666 47.9765 0.952C48.4245 1.42133 48.6485 1.98667 48.6485 2.648C48.6485 3.33067 48.4245 3.90667 47.9765 4.376C47.5498 4.824 46.9845 5.048 46.2805 5.048ZM62.506 23V14.136C62.506 13.2187 62.218 12.472 61.642 11.896C61.066 11.32 60.3193 11.032 59.402 11.032C58.8047 11.032 58.2713 11.16 57.802 11.416C57.3327 11.672 56.9593 12.0347 56.682 12.504C56.426 12.9733 56.298 13.5173 56.298 14.136L54.666 13.304C54.666 12.088 54.922 11.032 55.434 10.136C55.9673 9.21867 56.6927 8.504 57.61 7.992C58.5487 7.48 59.6047 7.224 60.778 7.224C61.9087 7.224 62.922 7.512 63.818 8.088C64.714 8.64267 65.418 9.37867 65.93 10.296C66.442 11.192 66.698 12.1627 66.698 13.208V23H62.506ZM52.106 23V7.544H56.298V23H52.106ZM76.5388 29.848C74.8961 29.848 73.4454 29.5493 72.1868 28.952C70.9281 28.376 69.9254 27.5547 69.1788 26.488L71.8348 23.832C72.4321 24.536 73.0934 25.0693 73.8188 25.432C74.5654 25.816 75.4614 26.008 76.5068 26.008C77.8081 26.008 78.8321 25.6773 79.5788 25.016C80.3468 24.3547 80.7308 23.4373 80.7308 22.264V18.392L81.4348 15L80.7628 11.608V7.544H84.9228V22.2C84.9228 23.736 84.5601 25.0693 83.8348 26.2C83.1308 27.352 82.1494 28.248 80.8908 28.888C79.6321 29.528 78.1814 29.848 76.5388 29.848ZM76.3468 22.584C74.9601 22.584 73.7121 22.2533 72.6028 21.592C71.4934 20.9093 70.6188 19.9813 69.9788 18.808C69.3601 17.6347 69.0508 16.3227 69.0508 14.872C69.0508 13.4213 69.3601 12.12 69.9788 10.968C70.6188 9.816 71.4934 8.90933 72.6028 8.248C73.7121 7.56533 74.9601 7.224 76.3468 7.224C77.4988 7.224 78.5121 7.448 79.3868 7.896C80.2828 8.344 80.9868 8.96267 81.4988 9.752C82.0108 10.52 82.2881 11.4267 82.3308 12.472V17.336C82.2881 18.36 82.0001 19.2773 81.4668 20.088C80.9548 20.8773 80.2508 21.496 79.3548 21.944C78.4801 22.3707 77.4774 22.584 76.3468 22.584ZM77.1788 18.776C77.9468 18.776 78.6081 18.616 79.1628 18.296C79.7388 17.9547 80.1868 17.496 80.5068 16.92C80.8268 16.3227 80.9868 15.6507 80.9868 14.904C80.9868 14.136 80.8268 13.464 80.5068 12.888C80.1868 12.312 79.7388 11.864 79.1628 11.544C78.6081 11.2027 77.9468 11.032 77.1788 11.032C76.4108 11.032 75.7388 11.2027 75.1628 11.544C74.5868 11.864 74.1388 12.3227 73.8188 12.92C73.4988 13.496 73.3388 14.1573 73.3388 14.904C73.3388 15.6293 73.4988 16.2907 73.8188 16.888C74.1388 17.464 74.5868 17.9227 75.1628 18.264C75.7388 18.6053 76.4108 18.776 77.1788 18.776ZM101.832 23.32C100.019 23.32 98.4613 23.0107 97.16 22.392C95.88 21.7733 94.7173 20.8453 93.672 19.608L96.552 16.728C97.2133 17.6027 97.9813 18.2853 98.856 18.776C99.7307 19.2453 100.797 19.48 102.056 19.48C103.187 19.48 104.083 19.256 104.744 18.808C105.427 18.36 105.768 17.7413 105.768 16.952C105.768 16.2693 105.576 15.7147 105.192 15.288C104.808 14.8613 104.296 14.4987 103.656 14.2C103.037 13.9013 102.344 13.6347 101.576 13.4C100.829 13.144 100.072 12.856 99.304 12.536C98.5573 12.216 97.864 11.8213 97.224 11.352C96.6053 10.8613 96.104 10.2427 95.72 9.496C95.336 8.728 95.144 7.768 95.144 6.616C95.144 5.25067 95.4747 4.088 96.136 3.128C96.7973 2.168 97.704 1.432 98.856 0.919998C100.008 0.407998 101.309 0.151999 102.76 0.151999C104.296 0.151999 105.683 0.439999 106.92 1.016C108.157 1.592 109.171 2.33867 109.96 3.256L107.08 6.136C106.419 5.41067 105.736 4.87733 105.032 4.536C104.349 4.19467 103.571 4.024 102.696 4.024C101.693 4.024 100.904 4.216 100.328 4.6C99.752 4.984 99.464 5.53867 99.464 6.264C99.464 6.88267 99.656 7.384 100.04 7.768C100.424 8.152 100.925 8.48267 101.544 8.76C102.184 9.03733 102.877 9.304 103.624 9.56C104.392 9.816 105.149 10.104 105.896 10.424C106.664 10.744 107.357 11.16 107.976 11.672C108.616 12.184 109.128 12.8453 109.512 13.656C109.896 14.4453 110.088 15.4267 110.088 16.6C110.088 18.6907 109.352 20.3333 107.88 21.528C106.408 22.7227 104.392 23.32 101.832 23.32ZM120.342 23.32C118.72 23.32 117.28 22.9787 116.022 22.296C114.763 21.592 113.76 20.632 113.014 19.416C112.288 18.2 111.926 16.8133 111.926 15.256C111.926 13.72 112.278 12.3547 112.982 11.16C113.707 9.944 114.688 8.984 115.926 8.28C117.163 7.55467 118.539 7.192 120.054 7.192C121.547 7.192 122.859 7.53333 123.99 8.216C125.142 8.87733 126.038 9.79467 126.678 10.968C127.339 12.12 127.67 13.432 127.67 14.904C127.67 15.1813 127.648 15.4693 127.606 15.768C127.584 16.0453 127.531 16.3653 127.446 16.728L114.454 16.76V13.624L125.494 13.592L123.798 14.904C123.755 13.9867 123.584 13.2187 123.286 12.6C123.008 11.9813 122.592 11.512 122.038 11.192C121.504 10.8507 120.843 10.68 120.054 10.68C119.222 10.68 118.496 10.872 117.878 11.256C117.259 11.6187 116.779 12.1413 116.438 12.824C116.118 13.4853 115.958 14.2747 115.958 15.192C115.958 16.1307 116.128 16.952 116.47 17.656C116.832 18.3387 117.344 18.872 118.006 19.256C118.667 19.6187 119.435 19.8 120.31 19.8C121.099 19.8 121.814 19.672 122.454 19.416C123.094 19.1387 123.648 18.7333 124.118 18.2L126.582 20.664C125.835 21.5387 124.918 22.2 123.83 22.648C122.763 23.096 121.6 23.32 120.342 23.32ZM130.262 23V7.544H134.454V23H130.262ZM134.454 14.456L132.822 13.368C133.014 11.4693 133.569 9.976 134.486 8.888C135.404 7.77867 136.726 7.224 138.454 7.224C139.201 7.224 139.873 7.352 140.47 7.608C141.068 7.84267 141.612 8.23733 142.102 8.792L139.478 11.8C139.244 11.544 138.956 11.352 138.614 11.224C138.294 11.096 137.921 11.032 137.494 11.032C136.598 11.032 135.862 11.32 135.286 11.896C134.732 12.4507 134.454 13.304 134.454 14.456ZM148.443 23L141.627 7.544H146.235L151.131 20.28H148.859L153.787 7.544H158.235L151.451 23H148.443ZM160.169 23V7.544H164.393V23H160.169ZM162.281 5.048C161.598 5.048 161.033 4.824 160.585 4.376C160.137 3.90667 159.913 3.33067 159.913 2.648C159.913 1.98667 160.137 1.42133 160.585 0.952C161.033 0.482666 161.598 0.247999 162.281 0.247999C162.985 0.247999 163.55 0.482666 163.977 0.952C164.425 1.42133 164.649 1.98667 164.649 2.648C164.649 3.33067 164.425 3.90667 163.977 4.376C163.55 4.824 162.985 5.048 162.281 5.048ZM175.402 23.32C173.823 23.32 172.405 22.968 171.146 22.264C169.887 21.56 168.895 20.6 168.17 19.384C167.445 18.168 167.082 16.8027 167.082 15.288C167.082 13.752 167.445 12.376 168.17 11.16C168.895 9.944 169.887 8.984 171.146 8.28C172.426 7.55467 173.845 7.192 175.402 7.192C176.618 7.192 177.738 7.416 178.762 7.864C179.786 8.312 180.671 8.952 181.418 9.784L178.73 12.504C178.325 12.056 177.834 11.7147 177.258 11.48C176.703 11.2453 176.085 11.128 175.402 11.128C174.634 11.128 173.941 11.3093 173.322 11.672C172.725 12.0133 172.245 12.4933 171.882 13.112C171.541 13.7093 171.37 14.424 171.37 15.256C171.37 16.0667 171.541 16.792 171.882 17.432C172.245 18.0507 172.725 18.5413 173.322 18.904C173.941 19.2453 174.634 19.416 175.402 19.416C176.106 19.416 176.735 19.2987 177.29 19.064C177.866 18.808 178.357 18.4453 178.762 17.976L181.482 20.696C180.693 21.5493 179.786 22.2 178.762 22.648C177.738 23.096 176.618 23.32 175.402 23.32ZM190.904 23.32C189.283 23.32 187.843 22.9787 186.584 22.296C185.326 21.592 184.323 20.632 183.576 19.416C182.851 18.2 182.488 16.8133 182.488 15.256C182.488 13.72 182.84 12.3547 183.544 11.16C184.27 9.944 185.251 8.984 186.488 8.28C187.726 7.55467 189.102 7.192 190.616 7.192C192.11 7.192 193.422 7.53333 194.552 8.216C195.704 8.87733 196.6 9.79467 197.24 10.968C197.902 12.12 198.232 13.432 198.232 14.904C198.232 15.1813 198.211 15.4693 198.168 15.768C198.147 16.0453 198.094 16.3653 198.008 16.728L185.016 16.76V13.624L196.056 13.592L194.36 14.904C194.318 13.9867 194.147 13.2187 193.848 12.6C193.571 11.9813 193.155 11.512 192.6 11.192C192.067 10.8507 191.406 10.68 190.616 10.68C189.784 10.68 189.059 10.872 188.44 11.256C187.822 11.6187 187.342 12.1413 187 12.824C186.68 13.4853 186.52 14.2747 186.52 15.192C186.52 16.1307 186.691 16.952 187.032 17.656C187.395 18.3387 187.907 18.872 188.568 19.256C189.23 19.6187 189.998 19.8 190.872 19.8C191.662 19.8 192.376 19.672 193.016 19.416C193.656 19.1387 194.211 18.7333 194.68 18.2L197.144 20.664C196.398 21.5387 195.48 22.2 194.392 22.648C193.326 23.096 192.163 23.32 190.904 23.32ZM206.137 23.352C205.262 23.352 204.398 23.2347 203.545 23C202.713 22.7653 201.945 22.4453 201.241 22.04C200.537 21.6133 199.929 21.1013 199.417 20.504L201.913 17.976C202.446 18.5733 203.065 19.0213 203.769 19.32C204.473 19.6187 205.251 19.768 206.105 19.768C206.787 19.768 207.299 19.672 207.641 19.48C208.003 19.288 208.185 19 208.185 18.616C208.185 18.1893 207.993 17.8587 207.609 17.624C207.246 17.3893 206.766 17.1973 206.169 17.048C205.571 16.8773 204.942 16.696 204.281 16.504C203.641 16.2907 203.022 16.024 202.425 15.704C201.827 15.3627 201.337 14.904 200.953 14.328C200.59 13.7307 200.409 12.9627 200.409 12.024C200.409 11.0427 200.643 10.1893 201.113 9.464C201.603 8.73867 202.297 8.17333 203.193 7.768C204.089 7.36267 205.145 7.16 206.361 7.16C207.641 7.16 208.793 7.384 209.817 7.832C210.862 8.28 211.726 8.952 212.409 9.848L209.881 12.376C209.411 11.8 208.878 11.384 208.281 11.128C207.705 10.872 207.075 10.744 206.393 10.744C205.774 10.744 205.294 10.84 204.953 11.032C204.633 11.224 204.473 11.4907 204.473 11.832C204.473 12.216 204.654 12.5147 205.017 12.728C205.401 12.9413 205.891 13.1333 206.489 13.304C207.086 13.4533 207.705 13.6347 208.345 13.848C209.006 14.04 209.625 14.3173 210.201 14.68C210.798 15.0427 211.278 15.5227 211.641 16.12C212.025 16.7173 212.217 17.4853 212.217 18.424C212.217 19.9387 211.673 21.144 210.585 22.04C209.497 22.9147 208.014 23.352 206.137 23.352Z" fill="#FFFAFF"/>
<path d="M217.924 23.32C217.156 23.32 216.526 23.064 216.036 22.552C215.545 22.04 215.299 21.4107 215.299 20.664C215.299 19.9173 215.545 19.288 216.036 18.776C216.526 18.264 217.156 18.008 217.924 18.008C218.67 18.008 219.289 18.264 219.78 18.776C220.27 19.288 220.516 19.9173 220.516 20.664C220.516 21.4107 220.27 22.04 219.78 22.552C219.289 23.064 218.67 23.32 217.924 23.32Z" fill="#FFC02D"/>
</svg>
